<?xml version="1.0" encoding="UTF-8" standalone="no"?>
<svg
   xmlns:dc="http://purl.org/dc/elements/1.1/"
   xmlns:cc="http://creativecommons.org/ns#"
   xmlns:rdf="http://www.w3.org/1999/02/22-rdf-syntax-ns#"
   xmlns:svg="http://www.w3.org/2000/svg"
   xmlns="http://www.w3.org/2000/svg"
   xmlns:sodipodi="http://sodipodi.sourceforge.net/DTD/sodipodi-0.dtd"
   xmlns:inkscape="http://www.inkscape.org/namespaces/inkscape"
   version="1.1"
   viewBox="0.0 0.0 348.0 348.0"
   fill="none"
   stroke="none"
   stroke-linecap="square"
   stroke-miterlimit="10"
   id="svg3755"
   sodipodi:docname="Functions.svg"
   inkscape:version="0.92.3 (2405546, 2018-03-11)">
  <metadata
     id="metadata3761">
    <rdf:RDF>
      <cc:Work
         rdf:about="">
        <dc:format>image/svg+xml</dc:format>
        <dc:type
           rdf:resource="http://purl.org/dc/dcmitype/StillImage" />
      </cc:Work>
    </rdf:RDF>
  </metadata>
  <defs
     id="defs3759" />
  <sodipodi:namedview
     pagecolor="#ffffff"
     bordercolor="#666666"
     borderopacity="1"
     objecttolerance="10"
     gridtolerance="10"
     guidetolerance="10"
     inkscape:pageopacity="0"
     inkscape:pageshadow="2"
     inkscape:window-width="1619"
     inkscape:window-height="892"
     id="namedview3757"
     showgrid="false"
     inkscape:zoom="0.96"
     inkscape:cx="271.80178"
     inkscape:cy="159.45235"
     inkscape:window-x="266"
     inkscape:window-y="70"
     inkscape:window-maximized="0"
     inkscape:current-layer="svg3755" />
  <clipPath
     id="p.0">
    <path
       d="m0 0l348.0 0l0 348.0l-348.0 0l0 -348.0z"
       clip-rule="nonzero"
       id="path3738" />
  </clipPath>
  <g
     clip-path="url(#p.0)"
     id="g3753"
     transform="matrix(1.0269663,0,0,1.0269663,-3.5191011,-5.0831461)">
    <path
       d="M 0,0 H 348 V 348 H 0 Z"
       id="path3741"
       inkscape:connector-curvature="0"
       style="fill:#000000;fill-opacity:0;fill-rule:nonzero" />
    <path
       d="M -6,0 H 342 V 347.9685 H -6 Z"
       id="path3743"
       inkscape:connector-curvature="0"
       style="fill:#ffffff;fill-rule:nonzero" />
    <path
       d="m 5.07874,5.7758217 h 336.9134 V 343.44512 H 5.07874 Z"
       id="path3745"
       inkscape:connector-curvature="0"
       style="fill:#000000;fill-opacity:0;fill-rule:nonzero" />
    <path
       d="m 5.07874,5.7758217 h 336.9134 V 343.44512 H 5.07874 Z"
       id="path3747"
       inkscape:connector-curvature="0"
       style="fill-rule:nonzero;stroke:#000000;stroke-width:2;stroke-linecap:butt;stroke-linejoin:round" />
    <path
       d="m 282.73444,40.553925 v 0 c 0,-8.375591 6.96603,-15.165352 15.55905,-15.165352 v 0 c 4.12653,0 8.08402,1.597773 11.00192,4.441828 2.91788,2.844057 4.55713,6.701422 4.55713,10.723524 v 0 c 0,8.375595 -6.966,15.165356 -15.55905,15.165356 v 0 c -8.59302,0 -15.55905,-6.789761 -15.55905,-15.165356 z"
       id="path3749"
       inkscape:connector-curvature="0"
       style="fill:#ffffff;fill-rule:nonzero" />
    <path
       d="m 282.73444,40.553925 v 0 c 0,-8.375591 6.96603,-15.165352 15.55905,-15.165352 v 0 c 4.12653,0 8.08402,1.597773 11.00192,4.441828 2.91788,2.844057 4.55713,6.701422 4.55713,10.723524 v 0 c 0,8.375595 -6.966,15.165356 -15.55905,15.165356 v 0 c -8.59302,0 -15.55905,-6.789761 -15.55905,-15.165356 z"
       id="path3751"
       inkscape:connector-curvature="0"
       style="fill-rule:nonzero;stroke:#000000;stroke-width:2;stroke-linecap:butt;stroke-linejoin:round" />
  </g>
</svg>
